# xmcd
#
# Track frame offsets:
#	150
#	2852
#	22850
#	41565
#	56935
#	68197
#	85382
#	102351
#	120590
#	127908
#	145902
#	164627
#	179967
#	196361
#	213136
#	230321
#	250196
#	269408
#	284980
#	302233
#
# Disc length: 4267 seconds
#
# Revision: 0
# Processed by: cddbd v1.4PL0 Copyright (c) Steve Scherf et al.
# Submitted via: dBpowerAMP V4.0
#
DISCID=3110a914
DTITLE=陳慧琳 - 繼續愛我
DYEAR=1999
DGENRE=
TTITLE0=DATA
TTITLE1=DATA
TTITLE2=DATA
TTITLE3=DATA
TTITLE4=DATA
TTITLE5=DATA
TTITLE6=DATA
TTITLE7=DATA
TTITLE8=DATA
TTITLE9=我敢去愛
TTITLE10=都是你的錯
TTITLE11=快樂情人
TTITLE12=我不愛"高柏飛"
TTITLE13=等不到的人
TTITLE14=請勿收回
TTITLE15=有沒有這個人
TTITLE16=帶走眼淚
TTITLE17=休克
TTITLE18=沒緣?沒了
TTITLE19=繼續愛我
EXTD=
EXTT0=
EXTT1=
EXTT2=
EXTT3=
EXTT4=
EXTT5=
EXTT6=
EXTT7=
EXTT8=
EXTT9=
EXTT10=
EXTT11=
EXTT12=
EXTT13=
EXTT14=
EXTT15=
EXTT16=
EXTT17=
EXTT18=
EXTT19=
PLAYORDER=
